<svg xmlns="http://www.w3.org/2000/svg" viewBox="0 0 40 40" role="img" aria-labelledby="title">
  <title id="title">BrowserSilo — durable identity, disposable browser shell</title>
  <rect x="2" y="2" width="36" height="36" rx="11" fill="#b9f36d"/>
  <g fill="none" stroke="#0a0b0a" stroke-linecap="round" stroke-linejoin="round" stroke-width="3">
    <path d="M16 9h-3.5A3.5 3.5 0 0 0 9 12.5V16"/>
    <path d="M24 9h3.5a3.5 3.5 0 0 1 3.5 3.5V16"/>
    <path d="M16 31h-3.5A3.5 3.5 0 0 1 9 27.5V24"/>
    <path d="M24 31h3.5a3.5 3.5 0 0 0 3.5-3.5V24"/>
  </g>
  <path d="M25 13.5c-1.25-1.15-3-1.75-5.05-1.75-3.1 0-5.2 1.45-5.2 3.65 0 2.05 1.65 3 5.35 4 3.55.95 5.15 1.9 5.15 4.1 0 2.4-2.15 4-5.45 4-2.35 0-4.45-.75-5.85-2.2" fill="none" stroke="#0a0b0a" stroke-linecap="round" stroke-linejoin="round" stroke-width="3.2"/>
</svg>
